<mxfile host="Electron" agent="Mozilla/5.0 (Windows NT 10.0; Win64; x64) AppleWebKit/537.36 (KHTML, like Gecko) draw.io/26.0.9 Chrome/128.0.6613.186 Electron/32.2.5 Safari/537.36" version="26.0.9">
  <diagram name="Page-1" id="oPdGorQUEMpEW7eRbp6K">
    <mxGraphModel dx="755" dy="680" grid="1" gridSize="10" guides="1" tooltips="1" connect="1" arrows="1" fold="1" page="1" pageScale="1" pageWidth="827" pageHeight="1169" math="0" shadow="0">
      <root>
        <mxCell id="0" />
        <mxCell id="1" parent="0" />
        <mxCell id="5O2p17_K3fBn7UO_ERKs-1" value="" style="endArrow=classic;html=1;exitX=1;exitY=0.5;exitDx=0;exitDy=0;entryX=0;entryY=0.5;entryDx=0;entryDy=0;endSize=8;arcSize=0;rounded=0;" parent="1" source="5O2p17_K3fBn7UO_ERKs-33" edge="1">
          <mxGeometry width="50" height="50" relative="1" as="geometry">
            <mxPoint x="240" y="295" as="sourcePoint" />
            <mxPoint x="550" y="295" as="targetPoint" />
          </mxGeometry>
        </mxCell>
        <mxCell id="DMUfFum5PpTdygHRF5ok-4" value="&lt;font style=&quot;font-size: 12px;&quot;&gt;odrs:copyrightHolder [0..*]&lt;/font&gt;" style="edgeLabel;html=1;align=center;verticalAlign=middle;resizable=0;points=[];" parent="5O2p17_K3fBn7UO_ERKs-1" vertex="1" connectable="0">
          <mxGeometry x="-0.0222" y="3" relative="1" as="geometry">
            <mxPoint x="12" y="3" as="offset" />
          </mxGeometry>
        </mxCell>
        <mxCell id="5O2p17_K3fBn7UO_ERKs-33" value="dcterms:RightsStatement" style="rounded=0;whiteSpace=wrap;html=1;snapToPoint=1;points=[[0.1,0],[0.2,0],[0.3,0],[0.4,0],[0.5,0],[0.6,0],[0.7,0],[0.8,0],[0.9,0],[0,0.1],[0,0.3],[0,0.5],[0,0.7],[0,0.9],[0.1,1],[0.2,1],[0.3,1],[0.4,1],[0.5,1],[0.6,1],[0.7,1],[0.8,1],[0.9,1],[1,0.1],[1,0.3],[1,0.5],[1,0.7],[1,0.9]];" parent="1" vertex="1">
          <mxGeometry x="120" y="280" width="210" height="30" as="geometry" />
        </mxCell>
        <mxCell id="5O2p17_K3fBn7UO_ERKs-36" value="&lt;div&gt;&lt;span style=&quot;background-color: transparent; color: light-dark(rgb(0, 0, 0), rgb(255, 255, 255));&quot;&gt;[0..*] odrs:copyrightNotice:&amp;nbsp;rdfs:Literal&lt;/span&gt;&lt;br&gt;&lt;/div&gt;&lt;div&gt;&lt;div&gt;typed as xsd:string&lt;/div&gt;&lt;/div&gt;&lt;div&gt;&lt;div&gt;[0..1] odrs:copyrightYear:&amp;nbsp;rdfs:Literal&lt;/div&gt;&lt;div&gt;typed as xsd:gYear&lt;/div&gt;&lt;/div&gt;" style="rounded=0;whiteSpace=wrap;html=1;snapToPoint=1;points=[[0.1,0],[0.2,0],[0.3,0],[0.4,0],[0.5,0],[0.6,0],[0.7,0],[0.8,0],[0.9,0],[0,0.1],[0,0.3],[0,0.5],[0,0.7],[0,0.9],[0.1,1],[0.2,1],[0.3,1],[0.4,1],[0.5,1],[0.6,1],[0.7,1],[0.8,1],[0.9,1],[1,0.1],[1,0.3],[1,0.5],[1,0.7],[1,0.9]];" parent="1" vertex="1">
          <mxGeometry x="120" y="310" width="210" height="70" as="geometry" />
        </mxCell>
        <mxCell id="5O2p17_K3fBn7UO_ERKs-39" value="" style="endArrow=classic;html=1;exitX=1;exitY=0.5;exitDx=0;exitDy=0;entryX=0;entryY=0.5;entryDx=0;entryDy=0;endSize=8;arcSize=0;rounded=0;" parent="1" source="5O2p17_K3fBn7UO_ERKs-33" target="5O2p17_K3fBn7UO_ERKs-44" edge="1">
          <mxGeometry width="50" height="50" relative="1" as="geometry">
            <mxPoint x="270" y="365" as="sourcePoint" />
            <mxPoint x="530" y="425" as="targetPoint" />
            <Array as="points">
              <mxPoint x="360" y="355" />
            </Array>
          </mxGeometry>
        </mxCell>
        <mxCell id="5O2p17_K3fBn7UO_ERKs-40" value="odrs:copyrightStatement [0..1]" style="text;html=1;align=center;verticalAlign=middle;resizable=0;points=[];labelBackgroundColor=#ffffff;" parent="5O2p17_K3fBn7UO_ERKs-39" vertex="1" connectable="0">
          <mxGeometry x="-0.1269" relative="1" as="geometry">
            <mxPoint x="45" as="offset" />
          </mxGeometry>
        </mxCell>
        <mxCell id="5O2p17_K3fBn7UO_ERKs-44" value="foaf:Document" style="rounded=0;whiteSpace=wrap;html=1;snapToPoint=1;points=[[0.1,0],[0.2,0],[0.3,0],[0.4,0],[0.5,0],[0.6,0],[0.7,0],[0.8,0],[0.9,0],[0,0.1],[0,0.3],[0,0.5],[0,0.7],[0,0.9],[0.1,1],[0.2,1],[0.3,1],[0.4,1],[0.5,1],[0.6,1],[0.7,1],[0.8,1],[0.9,1],[1,0.1],[1,0.3],[1,0.5],[1,0.7],[1,0.9]];" parent="1" vertex="1">
          <mxGeometry x="550" y="340" width="100" height="30" as="geometry" />
        </mxCell>
        <mxCell id="nNA3BMJejZ8WdVTlRqgj-1" value="foaf:Organization" style="rounded=0;whiteSpace=wrap;html=1;snapToPoint=1;points=[[0.1,0],[0.2,0],[0.3,0],[0.4,0],[0.5,0],[0.6,0],[0.7,0],[0.8,0],[0.9,0],[0,0.1],[0,0.3],[0,0.5],[0,0.7],[0,0.9],[0.1,1],[0.2,1],[0.3,1],[0.4,1],[0.5,1],[0.6,1],[0.7,1],[0.8,1],[0.9,1],[1,0.1],[1,0.3],[1,0.5],[1,0.7],[1,0.9]];fillColor=#CCE5FF;" vertex="1" parent="1">
          <mxGeometry x="650" y="300" width="100" height="30" as="geometry" />
        </mxCell>
        <mxCell id="nNA3BMJejZ8WdVTlRqgj-2" value="foaf:Person" style="rounded=0;whiteSpace=wrap;html=1;snapToPoint=1;points=[[0.1,0],[0.2,0],[0.3,0],[0.4,0],[0.5,0],[0.6,0],[0.7,0],[0.8,0],[0.9,0],[0,0.1],[0,0.3],[0,0.5],[0,0.7],[0,0.9],[0.1,1],[0.2,1],[0.3,1],[0.4,1],[0.5,1],[0.6,1],[0.7,1],[0.8,1],[0.9,1],[1,0.1],[1,0.3],[1,0.5],[1,0.7],[1,0.9]];fillColor=#BDA890;" vertex="1" parent="1">
          <mxGeometry x="650" y="260" width="100" height="30" as="geometry" />
        </mxCell>
        <mxCell id="nNA3BMJejZ8WdVTlRqgj-3" value="" style="group" vertex="1" connectable="0" parent="1">
          <mxGeometry x="550" y="280" width="30" height="30" as="geometry" />
        </mxCell>
        <mxCell id="nNA3BMJejZ8WdVTlRqgj-4" value="&lt;span class=&quot;st&quot;&gt;â¨†&lt;/span&gt;" style="ellipse;whiteSpace=wrap;html=1;aspect=fixed;fontSize=17;" vertex="1" parent="nNA3BMJejZ8WdVTlRqgj-3">
          <mxGeometry width="30" height="30" as="geometry" />
        </mxCell>
        <mxCell id="nNA3BMJejZ8WdVTlRqgj-5" value="" style="endArrow=diamondThin;endSize=12;html=1;fontColor=#000099;exitX=1;exitY=0;exitDx=0;exitDy=0;endFill=0;dashed=1;entryX=0;entryY=0.5;entryDx=0;entryDy=0;arcSize=0;rounded=0;" edge="1" parent="1" source="nNA3BMJejZ8WdVTlRqgj-4" target="nNA3BMJejZ8WdVTlRqgj-2">
          <mxGeometry width="50" height="50" relative="1" as="geometry">
            <mxPoint x="388" y="495" as="sourcePoint" />
            <mxPoint x="603" y="460" as="targetPoint" />
          </mxGeometry>
        </mxCell>
        <mxCell id="nNA3BMJejZ8WdVTlRqgj-6" value="" style="endArrow=diamondThin;endSize=12;html=1;fontColor=#000099;exitX=1;exitY=1;exitDx=0;exitDy=0;endFill=0;dashed=1;entryX=0;entryY=0.5;entryDx=0;entryDy=0;arcSize=0;rounded=0;" edge="1" parent="1" source="nNA3BMJejZ8WdVTlRqgj-4" target="nNA3BMJejZ8WdVTlRqgj-1">
          <mxGeometry width="50" height="50" relative="1" as="geometry">
            <mxPoint x="571.6066017177982" y="484.3933982822018" as="sourcePoint" />
            <mxPoint x="603" y="580" as="targetPoint" />
          </mxGeometry>
        </mxCell>
      </root>
    </mxGraphModel>
  </diagram>
</mxfile>
